# xmcd CD database file
#
# Track frame offsets:
#	183
#	9040
#	20533
#	36563
#	54105
#	73375
#	86665
#	108240
#	119183
#	131663
#	153900
#	166715
#	189528
#	208713
#	225803
#	242713
#
# Disc length: 3519 seconds
#
# Revision: 0
# Processed by: cddbd v1.4PL0 Copyright (c) Steve Scherf et al.
# Submitted via: CDex 1.50
#
DISCID=cd0dbd10
DTITLE=Lightnin' Hopkins - Mama and Papa Hopkins
DYEAR=1900
DGENRE=Blues
TTITLE0=Bunion Stew
TTITLE1=You got to work to get your pay
TTITLE2=Go down old Hannah
TTITLE3=Hear my black dog bark
TTITLE4=In the evening, the sun is going down
TTITLE5=Trouble in mind
TTITLE6=Mama and Papa Hopkins
TTITLE7=What did I say
TTITLE8=The foot race is on
TTITLE9=That gambling life
TTITLE10=When the Saints go marching in
TTITLE11=Get off my toe
TTITLE12=75 Highway
TTITLE13=Bottle up and go
TTITLE14=Short haired woman
TTITLE15=Don't wake me
EXTD=
EXTT0=
EXTT1=
EXTT2=
EXTT3=
EXTT4=
EXTT5=
EXTT6=
EXTT7=
EXTT8=
EXTT9=
EXTT10=
EXTT11=
EXTT12=
EXTT13=
EXTT14=
EXTT15=
PLAYORDER=
